<svg version="1.0" xmlns="http://www.w3.org/2000/svg" width="1365.333" height="1365.333" viewBox="0 0 1024 1024">
  <path d="M410.2 362.1c-3.3 7.6-4.6 15.1-4.5 25.4.1 5.5.8 12.3 1.6 15.2l1.4 5.2-3.3 3.2c-4.3 4.1-9.7 15.2-12.4 25.4-4.1 15-3.8 45.4.6 61.2.6 2.1.3 2.3-3.7 2.4h-4.4l5 1.4c4.4 1.2 8.5 4.3 8.5 6.5 0 .4-5.3 1.1-11.7 1.5-16.3.9-36.9 3.3-48.8 5.6-10.4 2-24.8 5.9-24.2 6.6.3.2 4.4-.5 9.3-1.6 18.1-4 43.4-7.3 71.1-9.4 5.3-.4 5.3-.4 7.7 3.7 6.2 10.6 17.2 19.7 32.1 26.7 8.9 4.2 26.4 9.1 36.8 10.4 3.1.4 5.7 1 5.7 1.3 0 .3-1.5 2.2-3.4 4.2-3.5 3.6-7.9 11.4-9.1 16.1-.6 2.3-1.6 2.8-9.4 4.8-10.3 2.5-12.2 2.6-18.8.6-7-2.1-12-6-20.9-16.5-11.4-13.4-19.4-17.9-29.5-16.5-3.9.5-4.7 1-4.2 2.3.9 2.6 4.4 6.2 8.7 8.9 6.4 4.1 9.4 8.2 13.3 18.1 8.1 21 22.5 29.3 48.4 27.9l10.9-.6v17.4c0 21.2-.8 23.9-8.1 28.6-5.6 3.5-7.7 6.5-6 8.2 1.9 1.9 12.4 2 18.4.3 7.9-2.3 13-7.3 15.2-15.1 1.6-5.2 1.7-8 .9-22-1.4-25.7-.8-34.3 2.9-37.3.9-.8 1.2 1.3 1.3 9.1 0 5.6.2 19.4.5 30.7.5 22.9.1 25.2-5.6 34-1.9 3-3.5 6.5-3.5 7.7 0 2.1.4 2.3 5.4 2.3 3 0 6.7-.5 8.3-1.1 3.5-1.3 9-6.5 11-10.4 4.2-8 4.7-12 4.9-43.9.2-29 .7-34.6 3-32.3 1.3 1.3 2.3 16.7 2.4 37.2.1 30 2.7 40.6 11.8 47 3.5 2.4 5.5 3 11.2 3.3 6.7.4 7 .3 7-1.9 0-1.2-1.8-5-3.9-8.3-5.8-8.9-6.6-14.8-5.7-43.1.4-12.6 1.1-24.8 1.5-27l.7-4 1.6 4.2c2.7 6.6 3.1 12.8 1.8 30.5-1.3 18-.5 26.2 2.8 30.8 5.6 7.6 18.3 13.2 25.2 11.1 2.1-.6 4.4-1.8 5.1-2.7 1.2-1.4.6-2.3-4.9-7.3-8.9-8.1-9.4-10.3-9-44.8.3-31.3.1-33-7.8-43.6l-5.3-7.2 5.2-.8c23-3.6 36.6-8.2 48.6-16.1 7.9-5.3 16.7-14.4 20.2-21.1l2.3-4.3 7.1.4c14.9 1.1 35.7 3.7 55.7 7 21.5 3.5 23.5 3.8 22.6 2.9-2.3-2.3-39.7-8.5-63.3-10.4-20.6-1.8-21.5-2-21.5-4.1 0-3.1 3.1-4 15.7-4.6 12.9-.7 29.7.5 55.6 3.9 17 2.3 20 2.1 9.2-.7-11-2.8-35.5-4.6-64-4.6-6 0-11.6-.4-12.3-.9-1.1-.7-1.1-2.2.2-8.7 5.9-31.5-.4-64.6-15.6-81.9l-4-4.5 1.1-5c2.1-9.8.7-25.4-3.2-36.5-1.2-3.4-1.9-4-4.6-4.3-4.3-.4-17.8 2.3-23.6 4.8-2.5 1.1-7.1 3.7-10.3 5.8-11.9 8.1-15.8 8.7-31.2 5.2-6.4-1.5-12.3-2-24.2-2-16.9 0-26.3 1-40 4.1l-8.7 2-6.2-4.1c-13.1-9-26.5-14.4-38.5-15.6l-6.4-.7-1.8 4.4z"/>
</svg>
