<svg version="1.0" xmlns="http://www.w3.org/2000/svg" width="1365.333" height="1365.333" viewBox="0 0 1024 1024">
  <path d="M334.3 311c-9.2 1.9-17.1 8.1-21.5 16.8l-2.3 4.7v357l2.8 5.7c3 6.1 7.4 10.5 14 14l4.2 2.3h359l4.6-2.3c5.5-2.7 11.3-8.3 14.2-13.7l2.2-4v-360l-2.5-4.8c-2.9-5.8-8.6-11.2-14.9-14.1l-4.6-2.1-175.5-.1c-96.5-.1-177.4.2-179.7.6zm83.5 70c7.2 3.1 14.3 11 16.6 18.5 3.9 12.3 0 26-9.6 33.6-13.4 10.5-36.2 9.6-47.8-2.1-16.7-16.6-9-45.2 14-51.7 6.9-2 20.4-1.1 26.8 1.7zm183.6 82.5c27.6 7.6 44.4 29.6 48.6 63.5.6 4.9 1 31.9 1 64.2V647l-30.2-.2-30.3-.3-.5-56.5-.5-56.5-2.4-6c-3-7.6-10.7-15.5-16.9-17.3-2.4-.8-7.6-1.3-11.5-1.3-16.3 0-29.3 12-31.8 29.3-.5 3.5-.9 29.4-.9 57.5V647h-60V465h59.9l.3 12.7.3 12.7 5.4-6.7c8.7-11 20-18 33.9-21.2 8.3-1.8 27-1.3 35.6 1zM432 556v91h-60V465h60v91z"/>
</svg>