<svg xmlns="http://www.w3.org/2000/svg" width="1365.333" height="1365.333" version="1.0" viewBox="0 0 1024 1024"><path d="M279.5 357.9c1.1 1 53.9 41.8 117.3 90.5L512 537l115.3-88.6c63.3-48.7 116.1-89.5 117.2-90.5 1.9-1.9-2.2-1.9-232.5-1.9s-234.4 0-232.5 1.9zM265 512.7v141.8l80-80c44-44 80-80.3 80-80.6 0-.5-157.6-122.1-159.2-122.7-.4-.2-.8 63.5-.8 141.5zM678.5 432.1c-43.4 33.5-79.1 61.2-79.2 61.6-.2.5 35.7 36.8 79.7 80.8l80 80V512.7c0-77.9-.3-141.7-.7-141.6-.5 0-36.3 27.5-79.8 61z"/><path d="M358.9 586.6L277.5 668h469l-81.4-81.4-81.5-81.5-10 7.8c-5.6 4.3-20.7 16-33.6 26-12.9 9.9-24.5 18.4-25.7 18.7-1.3.3-3.3.3-4.5 0-1.3-.3-12.9-8.8-25.8-18.7-12.9-10-28-21.7-33.6-26l-10-7.8-81.5 81.5z"/></svg>